<svg width="192" height="281" viewBox="0 0 192 281" fill="none" xmlns="http://www.w3.org/2000/svg">
<path d="M62.4552 165.08C66.6501 162.366 72.5658 163.18 78.7422 166.691C81.4465 153.968 87.9347 145.003 95.5121 145.003C103.089 145.003 109.576 153.968 112.282 166.691C118.458 163.18 124.374 162.365 128.569 165.08C136.97 170.516 135.291 188.044 124.817 204.232C116.138 217.645 104.148 225.92 95.5121 225.27C86.876 225.918 74.8863 217.645 66.2071 204.232C55.7335 188.046 54.0526 170.516 62.4552 165.08Z" fill="#FECA1F"/>
<path d="M130.723 167.022L97.1067 215.32V225.283C96.5629 225.315 96.0191 225.299 95.5074 225.267C94.9956 225.299 94.4519 225.315 93.9081 225.283V215.304L61.411 165.87C61.7309 165.583 62.0827 165.327 62.4505 165.087C62.9943 164.735 63.57 164.447 64.1618 164.223L93.9081 209.482V145.144C94.4359 145.048 94.9636 145 95.5074 145C96.0511 145 96.5789 145.048 97.1067 145.144V209.722L128.276 164.911C128.372 164.975 128.468 165.023 128.564 165.087C129.38 165.615 130.116 166.27 130.723 167.022Z" fill="black"/>
<path d="M64.6047 168.511C59.7509 167.328 54.4318 170.042 49.7539 175.388C43.0146 164.263 33.9403 157.93 26.7852 160.422C19.6301 162.914 16.4507 173.514 18.0804 186.418C11.0932 185.134 5.23982 186.309 2.17083 190.253C-3.97516 198.15 3.37511 214.151 18.589 225.994C31.196 235.807 45.2407 239.677 53.1827 236.224C61.5517 233.996 70.1541 222.24 73.938 206.719C78.5055 187.987 74.3266 170.881 64.6047 168.511Z" fill="#006E4E"/>
<path d="M51.4155 226.275L54.6939 235.711C54.1982 235.919 53.6864 236.094 53.1747 236.222C52.6949 236.43 52.1991 236.606 51.6713 236.766L48.3928 227.362L0.766602 192.786C1.10245 191.875 1.58224 191.027 2.17397 190.259C2.23794 190.163 2.31791 190.083 2.38188 190.004L46.5537 222.069L25.3154 161.073C25.7952 160.817 26.275 160.593 26.7867 160.417C27.2985 160.241 27.8102 160.113 28.338 160.017L49.4963 220.789L62.7063 168.253C63.346 168.269 63.9857 168.349 64.6094 168.509C65.0252 168.605 65.441 168.733 65.8408 168.893L51.4155 226.275Z" fill="black"/>
<path d="M126.416 168.511C131.27 167.328 136.589 170.042 141.267 175.388C148.006 164.263 157.081 157.93 164.236 160.422C171.391 162.914 174.569 173.514 172.941 186.418C179.928 185.134 185.781 186.309 188.85 190.253C194.996 198.15 187.646 214.151 172.432 225.994C159.825 235.807 145.78 239.677 137.838 236.224C129.469 233.996 120.867 222.24 117.083 206.719C112.517 187.987 116.694 170.881 126.416 168.511Z" fill="#006E4E"/>
<path d="M190.264 192.77L142.622 227.362L139.343 236.766C138.815 236.606 138.32 236.43 137.84 236.222C137.328 236.094 136.832 235.919 136.32 235.711L139.615 226.275L125.174 168.909C125.589 168.749 125.989 168.605 126.421 168.509C127.045 168.349 127.668 168.269 128.308 168.253L141.518 220.789L162.676 160.001C163.204 160.097 163.732 160.241 164.244 160.417C164.755 160.593 165.235 160.817 165.699 161.057L144.461 222.069L188.633 190.004C188.713 190.083 188.792 190.163 188.856 190.259C189.448 191.027 189.928 191.875 190.264 192.77Z" fill="black"/>
<path d="M98.1717 198.608C101.626 209.353 95.7168 220.865 84.9713 224.319C74.2259 227.773 62.7143 221.864 59.2599 211.119C55.8055 200.373 57.8173 176.736 68.5628 173.282C79.3067 169.827 94.7173 187.862 98.1717 198.608Z" fill="white"/>
<path d="M91.5572 199.27C93.9129 206.597 89.8827 214.448 82.5548 216.804C75.227 219.16 67.3762 215.13 65.0205 207.802C62.6647 200.474 66.6949 192.623 74.0227 190.267C81.3506 187.912 89.2014 191.942 91.5572 199.27Z" fill="#FECA1F"/>
<path d="M164.425 215.517C170.663 215.517 175.72 210.459 175.72 204.221C175.72 197.983 170.663 192.925 164.425 192.925C158.186 192.925 153.129 197.983 153.129 204.221C153.129 210.459 158.186 215.517 164.425 215.517Z" fill="#FECA1F"/>
<path d="M190.47 224.413C190.414 213.242 181.364 204.221 170.204 204.221C161.811 204.221 154.61 209.321 151.531 216.593C148.451 209.323 141.251 204.221 132.858 204.221C124.465 204.221 117.265 209.321 114.185 216.593C111.105 209.323 103.905 204.221 95.5121 204.221C87.1192 204.221 79.9193 209.321 76.8391 216.593C73.7589 209.323 66.559 204.221 58.166 204.221C49.773 204.221 42.5731 209.321 39.4929 216.593C36.4127 209.323 29.2128 204.221 20.8199 204.221C9.65859 204.221 0.608333 213.242 0.553958 224.391C0.552359 224.445 1.25125 228.925 2.35475 232.825C10.212 260.565 35.6515 280.284 65.1692 280.284H125.857C155.373 280.284 180.812 260.565 188.671 232.825C189.618 229.473 190.472 224.44 190.47 224.413Z" fill="#F78537"/>
<path d="M8.97089 227.938C8.97089 231.009 6.47604 233.504 3.38945 233.504C3.10158 233.504 2.8137 233.488 2.52583 233.424C2.46186 233.232 2.41386 233.024 2.34989 232.832C1.26239 228.978 0.558716 224.548 0.558716 224.388C0.558716 223.956 0.574707 223.524 0.606692 223.108C1.42232 222.629 2.38191 222.357 3.38945 222.357C6.47604 222.357 8.97089 224.852 8.97089 227.938Z" fill="#AD5634"/>
<path d="M39.6719 227.932C39.6719 231.01 37.1755 233.507 34.0969 233.507C31.0183 233.507 28.5219 231.01 28.5219 227.932C28.5219 224.853 31.0183 222.357 34.0969 222.357C37.1755 222.357 39.6719 224.853 39.6719 227.932Z" fill="#AD5634"/>
<path d="M24.3239 207.052C24.3239 210.122 21.829 212.617 18.7424 212.617C15.6718 212.617 13.161 210.122 13.161 207.052C13.161 206.572 13.225 206.092 13.3529 205.644C15.6719 204.717 18.1827 204.221 20.8215 204.221C21.7971 204.221 22.7246 204.285 23.6682 204.429C24.084 205.213 24.3239 206.108 24.3239 207.052Z" fill="#AD5634"/>
<path d="M70.3797 227.932C70.3797 231.01 67.8832 233.507 64.8047 233.507C61.7261 233.507 59.2296 231.01 59.2296 227.932C59.2296 224.853 61.7261 222.357 64.8047 222.357C67.8832 222.357 70.3797 224.853 70.3797 227.932Z" fill="#AD5634"/>
<path d="M55.0296 207.052C55.0296 210.122 52.5348 212.617 49.4482 212.617C47.2732 212.617 45.3861 211.37 44.4745 209.547C47.2092 207.036 50.6476 205.261 54.4539 204.573C54.8217 205.309 55.0296 206.156 55.0296 207.052Z" fill="#AD5634"/>
<path d="M101.086 227.932C101.086 231.01 98.5891 233.507 95.5105 233.507C92.4319 233.507 89.9354 231.01 89.9354 227.932C89.9354 224.853 92.4319 222.357 95.5105 222.357C98.5891 222.357 101.086 224.853 101.086 227.932Z" fill="#AD5634"/>
<path d="M85.7358 207.052C85.7358 210.122 83.241 212.617 80.1544 212.617C79.8185 212.617 79.4827 212.585 79.1628 212.521C80.8901 210.154 83.129 208.171 85.7198 206.748C85.7358 206.844 85.7358 206.956 85.7358 207.052Z" fill="#AD5634"/>
<path d="M131.793 227.932C131.793 231.01 129.297 233.507 126.218 233.507C123.14 233.507 120.643 231.01 120.643 227.932C120.643 224.853 123.14 222.357 126.218 222.357C129.297 222.357 131.793 224.853 131.793 227.932Z" fill="#AD5634"/>
<path d="M111.868 212.521C111.548 212.585 111.212 212.617 110.86 212.617C107.79 212.617 105.295 210.122 105.295 207.052C105.295 206.956 105.295 206.86 105.311 206.764C107.902 208.171 110.141 210.154 111.868 212.521Z" fill="#AD5634"/>
<path d="M162.499 227.932C162.499 231.01 160.003 233.507 156.924 233.507C153.845 233.507 151.349 231.01 151.349 227.932C151.349 224.853 153.845 222.357 156.924 222.357C160.004 222.357 162.499 224.853 162.499 227.932Z" fill="#AD5634"/>
<path d="M146.556 209.563C145.628 211.37 143.741 212.617 141.566 212.617C138.496 212.617 136.001 210.122 136.001 207.052C136.001 206.156 136.209 205.309 136.576 204.573C140.383 205.277 143.821 207.036 146.556 209.563Z" fill="#AD5634"/>
<path d="M190.472 224.42C190.472 224.436 189.624 229.474 188.665 232.832C188.601 233.024 188.553 233.232 188.489 233.424C188.201 233.488 187.913 233.504 187.625 233.504C184.555 233.504 182.06 231.009 182.06 227.938C182.06 224.852 184.555 222.357 187.625 222.357C188.633 222.357 189.592 222.629 190.424 223.108C190.456 223.54 190.472 223.972 190.472 224.42Z" fill="#AD5634"/>
<path d="M177.854 207.052C177.854 210.122 175.359 212.617 172.272 212.617C169.201 212.617 166.707 210.122 166.707 207.052C166.707 206.108 166.947 205.213 167.346 204.429C168.29 204.285 169.234 204.221 170.209 204.221C172.848 204.221 175.359 204.717 177.662 205.644C177.79 206.092 177.854 206.572 177.854 207.052Z" fill="#AD5634"/>
<path d="M39.6768 269.695C39.6768 271.502 38.8132 273.117 37.4858 274.125C34.3672 272.67 31.3926 270.974 28.5619 269.055C28.8658 266.289 31.2327 264.13 34.0953 264.13C37.1819 264.13 39.6768 266.624 39.6768 269.695Z" fill="#AD5634"/>
<path d="M24.3191 248.817C24.3191 251.895 21.8226 254.392 18.744 254.392C15.6654 254.392 13.1689 251.895 13.1689 248.817C13.1689 245.738 15.6654 243.242 18.744 243.242C21.8226 243.242 24.3191 245.736 24.3191 248.817Z" fill="#AD5634"/>
<path d="M70.3797 269.7C70.3797 272.779 67.8832 275.275 64.8047 275.275C61.7261 275.275 59.2296 272.779 59.2296 269.7C59.2296 266.621 61.7261 264.125 64.8047 264.125C67.8832 264.125 70.3797 266.621 70.3797 269.7Z" fill="#AD5634"/>
<path d="M55.025 248.817C55.025 251.895 52.5285 254.392 49.4499 254.392C46.3713 254.392 43.8749 251.895 43.8749 248.817C43.8749 245.738 46.3713 243.242 49.4499 243.242C52.5301 243.242 55.025 245.736 55.025 248.817Z" fill="#AD5634"/>
<path d="M101.086 269.7C101.086 272.779 98.5891 275.275 95.5105 275.275C92.4319 275.275 89.9354 272.779 89.9354 269.7C89.9354 266.621 92.4319 264.125 95.5105 264.125C98.5891 264.125 101.086 266.621 101.086 269.7Z" fill="#AD5634"/>
<path d="M85.7326 248.817C85.7326 251.895 83.2362 254.392 80.1576 254.392C77.079 254.392 74.5825 251.895 74.5825 248.817C74.5825 245.738 77.079 243.242 80.1576 243.242C83.2362 243.242 85.7326 245.736 85.7326 248.817Z" fill="#AD5634"/>
<path d="M131.793 269.7C131.793 272.779 129.297 275.275 126.218 275.275C123.14 275.275 120.643 272.779 120.643 269.7C120.643 266.621 123.14 264.125 126.218 264.125C129.297 264.125 131.793 266.621 131.793 269.7Z" fill="#AD5634"/>
<path d="M116.439 248.817C116.439 251.895 113.942 254.392 110.864 254.392C107.785 254.392 105.289 251.895 105.289 248.817C105.289 245.738 107.785 243.242 110.864 243.242C113.944 243.242 116.439 245.736 116.439 248.817Z" fill="#AD5634"/>
<path d="M162.453 269.055C159.638 270.974 156.647 272.67 153.545 274.125C152.217 273.117 151.354 271.502 151.354 269.695C151.354 266.624 153.849 264.13 156.919 264.13C159.798 264.13 162.149 266.289 162.453 269.055Z" fill="#AD5634"/>
<path d="M147.146 248.817C147.146 251.895 144.65 254.392 141.571 254.392C138.493 254.392 135.996 251.895 135.996 248.817C135.996 245.738 138.493 243.242 141.571 243.242C144.65 243.242 147.146 245.736 147.146 248.817Z" fill="#AD5634"/>
<path d="M177.854 248.817C177.854 251.895 175.357 254.392 172.279 254.392C169.2 254.392 166.703 251.895 166.703 248.817C166.703 245.738 169.2 243.242 172.279 243.242C175.357 243.242 177.854 245.736 177.854 248.817Z" fill="#AD5634"/>
<path d="M168.14 120.517H88.1807C87.0306 120.517 86.0844 119.617 86.0353 118.477L82.7248 42.2668L81.3218 37.537L82.3514 33.6552L81.3248 10.0014C81.2727 8.78883 82.2487 7.7771 83.4702 7.7771H172.852C174.075 7.7771 175.052 8.78883 174.998 10.0014L170.286 118.477C170.237 119.617 169.291 120.517 168.14 120.517Z" fill="#FFDA37"/>
<path d="M154.409 89.107C152.886 85.9617 149.081 84.6375 145.912 86.1492C149.081 84.6375 150.416 80.8614 148.892 77.7161C147.589 75.0246 144.616 73.6736 141.8 74.2851C141.751 74.1765 141.703 74.0694 141.652 73.9608C143.887 72.159 144.677 69.0152 143.375 66.3266C141.852 63.1813 138.047 61.8571 134.878 63.3688C138.047 61.8571 139.38 58.081 137.857 54.9372C136.333 51.7919 132.529 50.4677 129.36 51.9793L117.091 57.834L119.574 50.8069C120.738 47.5143 118.991 43.9078 115.673 42.7532C112.355 41.5986 108.722 43.332 107.558 46.6246L101.559 63.6024C89.3933 64.9533 84.0861 54.4715 84.0817 54.464C82.2204 50.9245 81.6728 46.4446 82.7248 42.2637L82.3513 33.6506L49.5086 0C44.0914 5.74903 39.6234 12.4934 36.423 20.0413C29.3156 36.8227 29.1906 55.3523 36.0704 72.2259C50.6424 107.964 84.2959 114.798 99.5939 114.798C100.088 114.798 100.582 114.789 101.076 114.777C107.655 114.635 114.214 113.555 120.543 111.535C137.781 106.531 151.43 97.5371 151.43 97.5371C154.598 96.027 155.933 92.2523 154.409 89.107Z" fill="#FFA26A"/>
<path d="M131.321 94.4721C130.813 94.4721 130.327 94.1865 130.093 93.6985C129.77 93.0215 130.058 92.2106 130.735 91.8877L143.832 85.6388C144.51 85.3159 145.321 85.6016 145.643 86.2801C145.966 86.957 145.678 87.7679 145.001 88.0908L131.904 94.3397C131.715 94.429 131.517 94.4721 131.321 94.4721Z" fill="black"/>
<path d="M125.819 83.1139C125.311 83.1139 124.825 82.8282 124.591 82.3402C124.268 81.6632 124.555 80.8523 125.232 80.5295L138.33 74.279C139.008 73.9562 139.818 74.2433 140.141 74.9203C140.463 75.5973 140.176 76.4081 139.499 76.731L126.402 82.9815C126.213 83.0707 126.014 83.1139 125.819 83.1139Z" fill="black"/>
<path d="M120.315 71.7557C119.808 71.7557 119.321 71.4701 119.088 70.982C118.765 70.3051 119.052 69.4942 119.729 69.1713L132.827 62.9209C133.505 62.598 134.314 62.8837 134.637 63.5622C134.96 64.2391 134.673 65.05 133.996 65.3729L120.898 71.6233C120.711 71.7126 120.512 71.7557 120.315 71.7557Z" fill="black"/>
<circle cx="101.5" cy="25.5" r="3.5" fill="black"/>
</svg>
