<svg width="231" height="237" viewBox="0 0 231 237" fill="none" xmlns="http://www.w3.org/2000/svg">
<path d="M96.68 84.9755C96.063 84.6663 95.3105 84.9223 95.0052 85.5392L81.257 113.275L76.1933 110.814C73.42 109.466 70.2908 109.282 67.3808 110.288C64.4695 111.296 62.1245 113.376 60.7778 116.147L46.2783 145.992C44.9316 148.763 44.7454 151.892 45.7525 154.805C46.761 157.716 48.8412 160.06 51.6119 161.407L63.2064 167.039C64.8242 167.826 66.5396 168.197 68.2283 168.197C72.5091 168.197 76.629 165.806 78.6206 161.704L93.1214 131.859C94.4681 129.088 94.6543 125.959 93.6458 123.047C92.6387 120.135 90.5572 117.792 87.7852 116.445L83.5057 114.365L97.245 86.6478C97.5516 86.0308 97.297 85.2808 96.68 84.9755ZM48.114 153.986C47.326 151.707 47.4704 149.256 48.5257 147.086L63.0252 117.24C64.0806 115.07 65.9163 113.44 68.1967 112.652C69.1646 112.317 70.1629 112.15 71.1587 112.15C72.5079 112.15 73.8495 112.457 75.0986 113.064C75.0986 113.064 77.5184 114.239 80.1459 115.516L57.3838 161.434L52.7027 159.16C50.5325 158.104 48.9033 156.268 48.114 153.986ZM86.6919 118.695C88.8621 119.75 90.4926 121.586 91.2806 123.866C92.0698 126.145 91.9241 128.597 90.8688 130.768L76.3681 160.614C74.1903 165.096 68.7718 166.966 64.2959 164.792L59.6313 162.525L82.3934 116.607C84.7118 117.733 86.6919 118.695 86.6919 118.695Z" fill="black"/>
<path d="M93.8322 90.8133C88.3149 88.1326 86.0155 81.4878 88.6962 75.9705L89.7148 73.8738L109.695 83.5806L108.676 85.6773C105.994 91.1933 99.3494 93.4927 93.8322 90.8133Z" fill="#006E4E"/>
<path d="M136.639 104.389C136.021 104.081 135.269 104.335 134.964 104.953L121.216 132.688L116.151 130.226C113.379 128.879 110.251 128.692 107.338 129.702C104.427 130.709 102.083 132.79 100.737 135.561L86.2358 165.407C83.4575 171.127 85.8481 178.043 91.5681 180.822L103.163 186.454C104.758 187.229 106.472 187.62 108.193 187.62C109.463 187.62 110.739 187.407 111.974 186.979C114.885 185.971 117.229 183.891 118.576 181.119L133.076 151.273C134.423 148.501 134.609 145.373 133.601 142.46C132.594 139.549 130.513 137.205 127.741 135.859L123.462 133.78L137.201 106.064C137.51 105.446 137.257 104.696 136.639 104.389ZM88.4845 166.501L102.985 136.654C104.041 134.484 105.876 132.854 108.157 132.066C109.125 131.731 110.122 131.564 111.117 131.564C112.467 131.564 113.808 131.87 115.057 132.477C115.057 132.477 117.477 133.653 120.106 134.93L97.3438 180.848L92.6627 178.574C88.1817 176.396 86.308 170.98 88.4845 166.501ZM126.651 138.109C131.132 140.285 133.005 145.701 130.829 150.181L116.328 180.027C114.152 184.507 108.739 186.383 104.256 184.205L99.5913 181.939L122.353 136.021C124.672 137.147 126.651 138.109 126.651 138.109Z" fill="black"/>
<path d="M133.791 110.227C128.273 107.546 125.974 100.9 128.655 95.3842L129.673 93.2875L149.653 102.994L148.635 105.091C145.953 110.608 139.308 112.908 133.791 110.227Z" fill="#006E4E"/>
<path d="M186.533 6.29189C176.357 1.34091 165.518 -0.796338 156.017 0.266578C146.366 1.35356 139.128 5.57992 135.528 12.2298L141.153 14.9675C143.803 10.3041 149.291 7.30415 156.704 6.4794C158.08 6.32991 159.492 6.25389 160.929 6.25389C168.205 6.25389 176.168 8.20362 183.794 11.9169C201.42 20.4797 212.134 36.4564 207.758 47.3199L213.384 50.0577C219.573 35.7583 207.972 16.7057 186.533 6.29189Z" fill="#F78537"/>
<path d="M228.674 74.9115L210.522 112.278L81.1594 49.4218C81.1974 49.3965 81.2101 49.3724 81.2215 49.3344L103.649 14.3811C108.562 6.73036 118.439 3.93052 126.639 7.91741L221.436 53.9724C229.224 57.7604 232.449 67.1366 228.674 74.9115Z" fill="#FECA1F"/>
<path d="M216.622 99.7146L214.66 103.752L204.809 109.503L202.096 108.19L216.622 99.7146Z" fill="#FDE5B4"/>
<path d="M229.473 72.9237C229.261 73.599 228.986 74.2615 228.674 74.9114L227.749 76.8245L186.758 100.727L184.058 99.4143L229.473 72.9237Z" fill="#FDE5B4"/>
<path d="M226.71 58.1481L168.717 91.9637L166.004 90.6512L224.923 56.2858C225.574 56.8597 226.173 57.4855 226.71 58.1481Z" fill="#FDE5B4"/>
<path d="M210.16 48.4968L150.666 83.2006L147.966 81.8754L207.446 47.1843L210.16 48.4968Z" fill="#FDE5B4"/>
<path d="M192.121 39.7338L132.627 74.4248L129.927 73.1111L189.42 38.4213L192.121 39.7338Z" fill="#FDE5B4"/>
<path d="M174.069 30.9569L114.575 65.6607L111.875 64.3482L171.355 29.6444L174.069 30.9569Z" fill="#FDE5B4"/>
<path d="M156.028 22.1939L96.5355 56.8849L93.8358 55.5851L153.316 20.8813L156.028 22.1939Z" fill="#FDE5B4"/>
<path d="M137.978 13.4308L84.0973 44.8583L87.0593 40.2329L135.264 12.1056L137.978 13.4308Z" fill="#FDE5B4"/>
<path d="M210.522 112.278L209.397 114.603C205.609 122.379 196.246 125.641 188.458 121.853L87.8726 72.9857C79.0716 68.71 75.9462 57.7096 81.1594 49.4204L210.522 112.278Z" fill="#F78537"/>
<path d="M117.299 35.5468L109.093 31.5599C106.826 30.459 105.883 27.7301 106.984 25.4637C108.084 23.1972 110.813 22.2534 113.08 23.3543L121.285 27.3412C123.552 28.4421 124.496 31.171 123.395 33.4374C122.294 35.7039 119.565 36.6477 117.299 35.5468Z" fill="#006E4E"/>
<path d="M109.05 50.1768L100.844 46.1899C98.5778 45.089 97.634 42.3601 98.7349 40.0937C99.8358 37.8272 102.565 36.8834 104.831 37.9843L113.037 41.9712C115.303 43.0721 116.247 45.801 115.146 48.0674C114.045 50.3339 111.316 51.2777 109.05 50.1768Z" fill="#006E4E"/>
<path d="M139.776 15.5504C139.592 15.5504 139.407 15.5098 139.231 15.4249L136.572 14.1327C135.95 13.8312 135.691 13.0825 135.993 12.463C136.294 11.8409 137.042 11.5812 137.662 11.884L140.322 13.1762C140.942 13.4777 141.202 14.2265 140.901 14.846C140.685 15.2919 140.241 15.5504 139.776 15.5504Z" fill="black"/>
<path d="M211.98 50.5303C211.797 50.5303 211.612 50.4898 211.436 50.4049L208.776 49.1126C208.156 48.8111 207.896 48.0624 208.197 47.4429C208.498 46.8209 209.248 46.5624 209.867 46.8639L212.526 48.1561C213.147 48.4577 213.407 49.2064 213.105 49.8259C212.89 50.2719 212.444 50.5303 211.98 50.5303Z" fill="black"/>
<path d="M147.481 103.074C147.3 103.074 147.117 103.035 146.942 102.953L131.877 95.744C131.255 95.4462 130.99 94.6988 131.289 94.0767C131.587 93.4534 132.33 93.1899 132.956 93.4889L148.022 100.697C148.644 100.995 148.909 101.743 148.611 102.365C148.396 102.812 147.947 103.074 147.481 103.074Z" fill="black"/>
<path d="M107.181 83.6921C107 83.6921 106.818 83.6529 106.643 83.5705L91.5782 76.3632C90.9562 76.0655 90.6914 75.318 90.9904 74.696C91.2881 74.0727 92.0331 73.8092 92.6576 74.1069L107.722 81.3142C108.344 81.6119 108.609 82.3594 108.31 82.9814C108.096 83.4312 107.647 83.6921 107.181 83.6921Z" fill="black"/>
<path d="M184.246 184.958C185.538 185.49 186.112 186.985 185.541 188.261C167.443 228.681 120.367 247.662 79.1186 230.686C37.8803 213.715 17.8015 167.096 33.3968 125.646C33.8883 124.339 35.3491 123.68 36.6413 124.212L184.246 184.958Z" fill="#006E4E"/>
<path d="M36.6172 147.956C33.7046 146.756 30.4791 147.43 28.2786 149.431C28.029 153.394 28.0784 157.357 28.404 161.283C29.0412 161.858 29.7798 162.307 30.5792 162.633C31.5547 163.033 32.5796 163.234 33.6045 163.234C34.6421 163.234 35.667 163.033 36.6552 162.622C38.6176 161.81 40.1303 160.284 40.9436 158.321C42.6058 154.27 40.6674 149.62 36.6172 147.956ZM38.6302 157.37C38.0804 158.708 37.0302 159.759 35.6923 160.321C34.3545 160.871 32.8799 160.884 31.5294 160.321C30.1916 159.771 29.1413 158.734 28.5915 157.396C28.029 156.058 28.029 154.571 28.5788 153.233C29.4416 151.132 31.4673 149.87 33.6045 149.87C34.2925 149.87 34.9918 149.996 35.667 150.271C38.4428 151.407 39.7679 154.595 38.6302 157.37Z" fill="#F78537"/>
<path d="M62.1803 165.701L57.1533 163.634L59.2209 158.608C59.4831 157.97 59.1791 157.239 58.5405 156.976C57.902 156.717 57.1723 157.019 56.9088 157.657L54.8413 162.684L49.8155 160.616C49.1783 160.356 48.4473 160.659 48.1838 161.296C47.9215 161.935 48.2256 162.666 48.8641 162.928L53.8911 164.996L51.8235 170.021C51.5613 170.66 51.8654 171.391 52.5039 171.653C52.6597 171.717 52.8219 171.747 52.9802 171.747C53.4705 171.747 53.9367 171.456 54.1369 170.973L56.2044 165.946L61.2302 168.013C61.386 168.077 61.5482 168.107 61.7065 168.107C62.1968 168.107 62.663 167.816 62.8632 167.333C63.1229 166.696 62.8188 165.965 62.1803 165.701Z" fill="#F78537"/>
<path d="M49.9561 136.393C49.7559 136.881 49.2935 137.169 48.8058 137.169C48.6436 137.169 48.4815 137.143 48.3307 137.081L43.2923 135.006L41.2298 140.044C41.0296 140.52 40.5672 140.82 40.0795 140.82C39.9173 140.82 39.7552 140.782 39.6044 140.72C38.9545 140.458 38.6543 139.732 38.9165 139.094L40.9917 134.056L35.9533 131.993C35.316 131.731 35.0158 130.994 35.278 130.355C35.5402 129.718 36.2662 129.418 36.9034 129.68L41.9418 131.743L43.8168 127.167L46.1289 128.117L44.2539 132.693L49.2796 134.768C49.9181 135.03 50.2184 135.755 49.9561 136.393Z" fill="#F78537"/>
<path d="M71.483 138.556L62.2943 134.781C62.0194 134.855 61.7445 134.955 61.4823 135.068C59.5199 135.893 58.0072 137.418 57.1939 139.381C55.5305 143.418 57.4688 148.069 61.519 149.732C62.5072 150.145 63.5194 150.333 64.519 150.333C67.6444 150.333 70.619 148.483 71.8821 145.42C72.8335 143.107 72.608 140.593 71.483 138.556ZM69.5713 144.456C68.421 147.232 65.2462 148.557 62.4705 147.419C61.1326 146.869 60.0824 145.832 59.5199 144.494C58.9574 143.143 58.9574 141.669 59.5072 140.331C60.057 138.98 61.1073 137.93 62.4451 137.38C63.1203 137.093 63.8323 136.955 64.5329 136.955C65.2335 136.955 65.9328 137.093 66.6081 137.368C69.3826 138.505 70.7077 141.694 69.5713 144.456Z" fill="#F78537"/>
<path d="M53.8315 183.186C53.0195 181.223 51.4814 179.698 49.519 178.897C47.5693 178.085 45.4067 178.097 43.4557 178.91C41.4933 179.722 39.968 181.26 39.1673 183.211C38.3553 185.173 38.3679 187.336 39.18 189.287C39.9933 191.249 41.5301 192.762 43.4925 193.575C44.4553 193.976 45.4802 194.176 46.5051 194.176C47.5427 194.176 48.5803 193.976 49.5558 193.563C51.5182 192.738 53.0435 191.213 53.8442 189.25C54.6562 187.298 54.6436 185.135 53.8315 183.186ZM51.5309 188.298C50.981 189.648 49.9434 190.698 48.5929 191.248C47.2551 191.811 45.7805 191.811 44.4426 191.261C43.0921 190.711 42.0419 189.661 41.492 188.323C40.9296 186.985 40.9296 185.51 41.4794 184.16C42.3422 182.072 44.3679 180.798 46.5178 180.798C47.2057 180.798 47.8924 180.934 48.5676 181.211C49.9181 181.76 50.9683 182.798 51.5182 184.136C52.0807 185.485 52.0807 186.961 51.5309 188.298Z" fill="#F78537"/>
<path d="M84.7714 170.271C83.9466 168.321 82.4213 166.796 80.4589 165.995C78.4965 165.183 76.3466 165.195 74.3829 166.008C72.4332 166.821 70.9078 168.345 70.0945 170.309C68.4311 174.359 70.3694 179.01 74.4196 180.672C75.3951 181.072 76.4201 181.273 77.445 181.273C78.4699 181.273 79.5075 181.06 80.4957 180.66C82.4454 179.835 83.9707 178.309 84.784 176.347C85.5847 174.385 85.5847 172.233 84.7714 170.271ZM82.472 175.397C81.9095 176.747 80.8719 177.785 79.5341 178.347C78.1963 178.91 76.7216 178.91 75.3711 178.36C72.5966 177.222 71.2715 174.035 72.4079 171.259C72.9704 169.921 74.0079 168.871 75.3458 168.309C76.021 168.034 76.733 167.896 77.4336 167.896C78.1468 167.896 78.8461 168.032 79.5087 168.309C80.8465 168.858 81.8968 169.896 82.4593 171.234C83.0218 172.572 83.0218 174.059 82.472 175.397Z" fill="#F78537"/>
<path d="M106.021 183.733L100.993 181.664L103.06 176.639C103.322 176 103.018 175.269 102.38 175.007C101.74 174.748 101.012 175.049 100.748 175.687L98.6806 180.714L93.6535 178.647C93.015 178.388 92.2853 178.688 92.0218 179.327C91.7596 179.965 92.0636 180.696 92.7021 180.959L97.7291 183.026L95.6615 188.053C95.3993 188.692 95.7034 189.423 96.3419 189.685C96.4977 189.748 96.6586 189.779 96.8182 189.779C97.3085 189.779 97.776 189.487 97.9749 189.005L100.044 183.976L105.071 186.044C105.227 186.107 105.387 186.138 105.547 186.138C106.037 186.138 106.504 185.846 106.704 185.364C106.963 184.728 106.659 183.997 106.021 183.733Z" fill="#F78537"/>
<path d="M74.9974 196.848L69.9704 194.78L72.0379 189.752C72.3002 189.113 71.9961 188.384 71.3563 188.121C70.7229 187.863 69.9894 188.163 69.7259 188.803L67.6583 193.83L62.63 191.762C61.9979 191.504 61.2631 191.804 60.9996 192.444C60.7373 193.083 61.0414 193.812 61.6811 194.074L66.7082 196.142L64.6406 201.17C64.3783 201.809 64.6824 202.539 65.3222 202.801C65.4767 202.864 65.6389 202.895 65.7972 202.895C66.2875 202.895 66.755 202.603 66.9539 202.119L69.0215 197.092L74.0497 199.16C74.2043 199.223 74.3665 199.254 74.5248 199.254C75.0151 199.254 75.4813 198.962 75.6815 198.478C75.9399 197.84 75.6372 197.11 74.9974 196.848Z" fill="#F78537"/>
<path d="M93.798 154.433C93.5979 154.908 93.1355 155.208 92.635 155.208C92.4855 155.208 92.3221 155.171 92.16 155.108L87.1342 153.045L85.0717 158.071C84.8716 158.559 84.4092 158.846 83.9087 158.846C83.7593 158.846 83.5958 158.821 83.4337 158.746C82.7964 158.484 82.4961 157.759 82.7584 157.121L84.8209 152.095L79.7952 150.02C79.1579 149.758 78.8577 149.032 79.1199 148.395C79.3822 147.757 80.1081 147.457 80.7453 147.707L85.7711 149.782L87.6587 145.206L89.972 146.169L88.0844 150.732L93.1101 152.794C93.7613 153.057 94.0603 153.795 93.798 154.433Z" fill="#F78537"/>
<path d="M115.325 156.595L106.124 152.807C103.898 153.482 101.986 155.108 101.036 157.407C100.235 159.37 100.235 161.519 101.048 163.483C101.873 165.433 103.398 166.958 105.361 167.772C106.336 168.172 107.349 168.372 108.374 168.372C109.411 168.372 110.449 168.159 111.437 167.747C113.387 166.935 114.912 165.41 115.713 163.446C116.663 161.133 116.437 158.632 115.325 156.595ZM113.4 162.495C112.851 163.833 111.813 164.883 110.475 165.446C109.125 166.008 107.65 166.008 106.312 165.458C104.963 164.896 103.924 163.858 103.362 162.52C102.799 161.182 102.799 159.708 103.349 158.357C104.212 156.257 106.249 154.995 108.387 154.995C109.075 154.995 109.775 155.12 110.45 155.395C113.213 156.544 114.538 159.721 113.4 162.495Z" fill="#F78537"/>
<path d="M93.3609 196.924C91.4111 196.123 89.2473 196.123 87.2849 196.936C85.3339 197.761 83.8098 199.286 83.0091 201.249C82.1971 203.211 82.2097 205.362 83.0218 207.325C83.8339 209.275 85.3592 210.8 87.3216 211.601C88.2971 212.001 89.322 212.201 90.3469 212.201C91.3845 212.201 92.4094 212.001 93.3976 211.589C95.36 210.777 96.8727 209.252 97.6847 207.288C99.3481 203.237 97.4111 198.587 93.3609 196.924ZM95.3726 206.338C94.8228 207.676 93.7726 208.726 92.4347 209.289C91.0969 209.838 89.6223 209.851 88.2718 209.289C86.934 208.739 85.8837 207.701 85.3212 206.363C84.7714 205.025 84.7587 203.538 85.3212 202.2C85.871 200.863 86.9086 199.812 88.2464 199.25C88.9217 198.962 89.6337 198.824 90.3469 198.824C91.0463 198.824 91.7468 198.962 92.4094 199.237C95.1852 200.375 96.5103 203.562 95.3726 206.338Z" fill="#F78537"/>
<path d="M66.7322 214.113C65.9201 212.163 64.3821 210.638 62.4311 209.824C60.4687 209.025 58.3062 209.025 56.3552 209.85C54.7424 210.512 53.4426 211.663 52.5798 213.137C53.193 213.749 53.8176 214.337 54.4548 214.937C55.0173 213.674 56.0308 212.687 57.318 212.149C57.9932 211.874 58.6938 211.723 59.4058 211.723C60.1051 211.723 60.8057 211.861 61.481 212.136C62.8188 212.686 63.869 213.736 64.4189 215.074C64.9814 216.412 64.9814 217.887 64.4315 219.237C64.0312 220.2 63.394 220.987 62.606 221.575C63.3065 222.075 64.0185 222.563 64.7432 223.038C65.5932 222.275 66.2812 221.312 66.7436 220.187C67.5582 218.226 67.5455 216.075 66.7322 214.113Z" fill="#F78537"/>
<path d="M88.6721 229.203C88.4719 229.69 87.9968 229.978 87.5091 229.978C87.3469 229.978 87.1962 229.953 87.034 229.891L82.0083 227.815L80.5831 231.278C80.0953 231.09 79.6076 230.89 79.1198 230.69C78.8322 230.577 78.5446 230.453 78.2697 230.328L79.6949 226.865L74.6692 224.803C74.032 224.541 73.7191 223.802 73.9813 223.165C74.2562 222.527 74.9809 222.227 75.6194 222.489L80.6451 224.552L82.7203 219.526C82.9825 218.889 83.7085 218.589 84.3457 218.851C84.9829 219.113 85.2832 219.839 85.0209 220.476L82.9585 225.502L87.9842 227.577C88.6227 227.84 88.9356 228.564 88.6721 229.203Z" fill="#F78537"/>
<path d="M128.602 188.31C127.79 186.348 126.264 184.835 124.302 184.022C122.339 183.221 120.188 183.221 118.226 184.035C116.263 184.859 114.751 186.385 113.938 188.347C112.274 192.385 114.212 197.035 118.263 198.699C119.238 199.099 120.25 199.299 121.275 199.299C122.313 199.299 123.35 199.099 124.337 198.687C126.287 197.875 127.812 196.337 128.613 194.386C129.426 192.424 129.414 190.261 128.602 188.31ZM126.301 193.436C125.751 194.774 124.714 195.824 123.376 196.374C122.038 196.937 120.551 196.949 119.213 196.387C116.437 195.249 115.112 192.062 116.25 189.298C116.799 187.948 117.85 186.898 119.187 186.348C119.863 186.06 120.575 185.923 121.275 185.923C121.976 185.923 122.675 186.06 123.35 186.336C124.688 186.886 125.739 187.937 126.301 189.274C126.851 190.611 126.864 192.086 126.301 193.436Z" fill="#F78537"/>
<path d="M149.858 201.765L144.831 199.697L146.898 194.669C147.16 194.03 146.856 193.3 146.217 193.037C145.582 192.777 144.85 193.079 144.586 193.719L142.519 198.746L137.49 196.678C136.857 196.421 136.123 196.72 135.86 197.36C135.598 197.998 135.902 198.728 136.541 198.991L141.568 201.059L139.501 206.087C139.239 206.726 139.543 207.455 140.182 207.718C140.337 207.781 140.499 207.811 140.658 207.811C141.148 207.811 141.614 207.52 141.814 207.036L143.882 202.009L148.91 204.077C149.065 204.14 149.227 204.17 149.385 204.17C149.875 204.17 150.342 203.879 150.542 203.395C150.801 202.758 150.497 202.028 149.858 201.765Z" fill="#F78537"/>
<path d="M118.835 214.879L113.808 212.812L115.876 207.783C116.138 207.145 115.834 206.415 115.194 206.153C114.562 205.895 113.827 206.195 113.564 206.835L111.496 211.862L106.468 209.794C105.835 209.534 105.101 209.836 104.838 210.476C104.575 211.114 104.879 211.844 105.519 212.106L110.546 214.174L108.479 219.202C108.216 219.84 108.52 220.57 109.16 220.832C109.315 220.896 109.477 220.926 109.635 220.926C110.126 220.926 110.592 220.635 110.792 220.151L112.859 215.124L117.888 217.191C118.042 217.255 118.203 217.285 118.363 217.285C118.853 217.285 119.319 216.994 119.519 216.51C119.779 215.871 119.475 215.142 118.835 214.879Z" fill="#F78537"/>
<path d="M137.64 172.459C137.439 172.947 136.964 173.234 136.477 173.234C136.314 173.234 136.164 173.209 136.002 173.147L130.976 171.072L128.913 176.098C128.713 176.585 128.238 176.873 127.75 176.873C127.588 176.873 127.425 176.848 127.275 176.785C126.638 176.523 126.338 175.786 126.6 175.147L128.663 170.122L123.637 168.059C123 167.797 122.687 167.06 122.949 166.421C123.224 165.784 123.95 165.484 124.587 165.746L129.613 167.808L131.488 163.258C131.5 163.258 133.801 164.195 133.801 164.195L131.926 168.759L136.952 170.834C137.59 171.096 137.902 171.822 137.64 172.459Z" fill="#F78537"/>
<path d="M159.542 175.41C159.429 175.147 159.317 174.885 159.167 174.647L149.953 170.846C149.69 170.934 149.428 171.021 149.166 171.134C147.204 171.946 145.678 173.484 144.878 175.435C144.065 177.397 144.078 179.56 144.89 181.511C145.704 183.473 147.24 184.999 149.19 185.799C150.166 186.2 151.19 186.4 152.215 186.4C153.253 186.4 154.29 186.2 155.266 185.787C157.228 184.975 158.741 183.437 159.554 181.474C160.355 179.522 160.355 177.359 159.542 175.41ZM157.242 180.523C156.692 181.873 155.655 182.923 154.304 183.473C152.967 184.036 151.492 184.036 150.141 183.486C148.804 182.936 147.753 181.899 147.204 180.548C146.641 179.21 146.641 177.736 147.191 176.398C147.741 175.047 148.778 173.997 150.129 173.447C150.791 173.16 151.503 173.023 152.217 173.023C152.917 173.023 153.617 173.161 154.279 173.436C157.055 174.572 158.38 177.76 157.242 180.523Z" fill="#F78537"/>
<path d="M141.502 219.239C140.689 217.289 139.165 215.764 137.201 214.963C135.239 214.151 133.089 214.162 131.125 214.976C129.176 215.788 127.65 217.313 126.837 219.277C126.036 221.239 126.036 223.402 126.862 225.353C127.674 227.315 129.2 228.828 131.163 229.641C132.15 230.041 133.164 230.242 134.176 230.242C137.289 230.242 140.265 228.379 141.527 225.316C142.327 223.351 142.327 221.201 141.502 219.239ZM139.214 224.365C138.064 227.14 134.889 228.465 132.114 227.328C130.776 226.778 129.725 225.728 129.163 224.39C128.6 223.052 128.601 221.577 129.15 220.227C129.713 218.889 130.75 217.839 132.088 217.276C132.763 217.001 133.475 216.863 134.176 216.863C134.877 216.863 135.589 217.001 136.251 217.276C137.589 217.826 138.639 218.864 139.202 220.202C139.766 221.539 139.766 223.027 139.214 224.365Z" fill="#F78537"/>
<path d="M172.955 208.15C172.855 207.536 172.693 206.925 172.442 206.337C171.629 204.387 170.092 202.862 168.142 202.048C164.092 200.385 159.442 202.323 157.779 206.374C156.966 208.336 156.98 210.487 157.792 212.449C158.604 214.399 160.142 215.925 162.105 216.738C162.667 216.976 163.255 217.138 163.855 217.226C164.88 216.35 165.88 215.463 166.855 214.537C165.618 214.974 164.28 214.925 163.055 214.425C161.704 213.862 160.654 212.824 160.104 211.487C159.542 210.149 159.542 208.674 160.091 207.324C160.954 205.223 162.991 203.961 165.13 203.961C165.818 203.961 166.517 204.087 167.18 204.362C168.529 204.924 169.58 205.962 170.13 207.3C170.643 208.525 170.693 209.888 170.256 211.137C171.193 210.163 172.081 209.176 172.955 208.15Z" fill="#F78537"/>
<path d="M181.469 190.498C181.269 190.973 180.806 191.274 180.319 191.274C180.156 191.274 179.993 191.236 179.843 191.173L174.818 189.111L172.743 194.137C172.542 194.612 172.08 194.912 171.592 194.912C171.43 194.912 171.267 194.874 171.117 194.812C170.48 194.55 170.167 193.824 170.429 193.187L172.504 188.161L167.479 186.086C166.841 185.823 166.529 185.098 166.791 184.46C167.053 183.823 167.79 183.51 168.429 183.772L173.455 185.848L175.317 181.284L177.629 182.247L175.767 186.798L180.792 188.86C181.432 189.124 181.731 189.861 181.469 190.498Z" fill="#F78537"/>
<path d="M106.261 227.865C102.224 226.19 97.5731 228.14 95.9097 232.177C95.46 233.264 95.2725 234.391 95.3219 235.49C96.172 235.652 97.0094 235.803 97.8595 235.927C97.734 235.015 97.8468 234.052 98.2218 233.139C99.0846 231.038 101.109 229.764 103.26 229.764C103.935 229.764 104.636 229.902 105.31 230.177C107.96 231.265 109.285 234.214 108.41 236.877C109.273 236.903 110.136 236.915 110.986 236.903C111.812 233.228 109.887 229.352 106.261 227.865Z" fill="#F78537"/>
<path d="M173.556 200.178C173.401 200.178 173.244 200.151 173.092 200.09L33.2244 144.178C32.5834 143.922 32.2705 143.194 32.5276 142.553C32.7835 141.911 33.5107 141.598 34.153 141.856L174.021 197.768C174.662 198.024 174.975 198.752 174.718 199.393C174.521 199.882 174.051 200.178 173.556 200.178Z" fill="black"/>
<path d="M17.9129 87.2876C21.6502 90.5638 30.9162 108.66 33.8985 114.595C34.2469 115.29 33.5792 116.051 32.8457 115.796C26.5708 113.617 7.41681 106.801 3.6795 103.525C-0.804003 99.5954 -1.2525 92.7745 2.67737 88.291C6.60725 83.8062 13.4282 83.3577 17.9129 87.2876Z" fill="#FDE5B4"/>
<path d="M189.619 154.335C184.862 153.878 167.462 144.959 161.801 142.001C161.139 141.655 161.232 140.686 161.948 140.473C168.069 138.648 186.849 133.208 191.607 133.667C197.314 134.216 201.496 139.288 200.947 144.995C200.397 150.702 195.326 154.883 189.619 154.335Z" fill="#FDE5B4"/>
<path d="M44.9887 55.9778C46.0111 59.8836 44.0043 76.2809 43.3076 81.6322C43.2265 82.258 42.4296 82.4658 42.0521 81.9603C38.8228 77.6365 29.0386 64.3266 28.0163 60.4195C26.7899 55.7333 29.5948 50.9394 34.281 49.7118C38.9685 48.4855 43.7611 51.2903 44.9887 55.9778Z" fill="#FDE5B4"/>
<path d="M152.831 180.343C150.309 177.749 144.63 164.078 142.81 159.599C142.597 159.075 143.125 158.561 143.643 158.788C148.071 160.733 161.577 166.788 164.1 169.383C167.126 172.496 167.057 177.471 163.945 180.497C160.834 183.524 155.857 183.454 152.831 180.343Z" fill="#FDE5B4"/>
</svg>
