<svg width="291" height="291" viewBox="0 0 291 291" fill="none" xmlns="http://www.w3.org/2000/svg">
<g clip-path="url(#clip0_70_4523)">
<path d="M279.649 175.919C271.172 190.83 258.826 202.04 244.437 208.443C236.959 211.791 228.912 213.833 220.573 214.417V166.413C222.601 165.952 224.581 165.215 226.455 164.202C231.139 161.729 235.254 157.675 238.264 152.378C244.76 140.953 259.302 136.96 270.727 143.456C282.151 149.951 286.145 164.479 279.649 175.919Z" fill="#FFA26A"/>
<path d="M244.921 209.632C241.21 200.586 232.135 178.421 226.663 164.66C225.942 162.848 224.172 161.707 222.222 161.75C216.924 161.867 207.561 160.502 197.039 156.148C183.198 150.42 178.483 141.213 176.562 137.842L161.868 141.08L105.946 152.765C93.7588 146.873 57.5605 133.584 21.2543 161.411C-15.019 189.212 4.6309 224.029 11.5262 233.563C12.6772 235.154 14.8744 235.541 16.5096 234.454L58.8029 206.367C59.448 205.938 59.9448 205.324 60.2074 204.595C61.0031 202.386 63.1049 197.925 68.0382 194.999C73.0904 192.004 77.5605 193.652 80.0255 194.898L56.5539 265.233L205.59 264.383L188.721 213.834C193.528 215.484 199.115 216.724 205.59 217.289C226.181 219.086 236.827 217.416 242.045 215.798C244.631 214.996 245.948 212.136 244.921 209.632Z" fill="#006E4E"/>
<path d="M36.9592 151.748L31.1853 164.232C30.9244 164.77 30.3867 165.123 29.7882 165.123C29.1892 165.123 28.6521 164.77 28.3906 164.232L25.6267 158.259C26.4866 157.66 27.3619 157.092 28.2218 156.554L29.7882 159.933L32.5368 154.021C34.0265 153.207 35.4849 152.439 36.9592 151.748Z" fill="black"/>
<path d="M93.7771 148.047L86.2679 164.232C86.0064 164.77 85.4693 165.123 84.8703 165.123C84.2718 165.123 83.7341 164.77 83.4733 164.232L74.9661 145.866C74.7666 145.436 74.7813 144.961 74.9507 144.576C75.9493 144.638 76.9008 144.714 77.8528 144.822L84.8709 159.932L90.7829 147.202C91.8117 147.479 92.8097 147.756 93.7771 148.047Z" fill="black"/>
<path d="M29.7871 220.585C29.1886 220.585 28.6459 220.237 28.3941 219.695L19.8732 201.332C19.5163 200.563 19.8505 199.65 20.6201 199.293C21.3896 198.938 22.3041 199.272 22.6593 200.04L29.7871 215.4L36.9132 200.04C37.2684 199.271 38.179 198.936 38.9525 199.293C39.722 199.65 40.0562 200.563 39.6993 201.332L31.1802 219.695C30.9284 220.237 30.3856 220.585 29.7871 220.585Z" fill="black"/>
<path d="M59.8743 193.299C59.6987 193.299 59.5203 193.269 59.3463 193.205C58.5501 192.913 58.1408 192.031 58.4318 191.235L64.2547 175.334L48.3526 181.155C47.5591 181.446 46.6748 181.038 46.3821 180.241C46.0911 179.445 46.5003 178.563 47.2965 178.271L66.3059 171.312C66.8714 171.108 67.4994 171.246 67.9195 171.668C68.3423 172.091 68.4816 172.72 68.2764 173.282L61.3168 192.291C61.0889 192.913 60.4995 193.299 59.8743 193.299Z" fill="black"/>
<path d="M13.1882 173.277L6.23209 192.288C6.00191 192.918 5.4182 193.302 4.78846 193.302C4.61966 193.302 4.43551 193.271 4.26614 193.21C3.46759 192.918 3.05269 192.027 3.34483 191.229L9.16426 175.335L7.2756 176.026C8.25829 174.521 9.36432 173.032 10.5925 171.543L11.2223 171.312C11.7906 171.113 12.4204 171.251 12.8347 171.665C13.2496 172.095 13.4031 172.725 13.1882 173.277Z" fill="black"/>
<path d="M94.791 201.333L86.2684 219.699C86.007 220.237 85.4699 220.59 84.8708 220.59C84.2724 220.59 83.7347 220.237 83.4738 219.699L76.6558 205.003C76.6558 204.988 78.084 200.765 78.084 200.765L84.8714 215.4L91.9969 200.044C92.3499 199.276 93.2712 198.938 94.039 199.291C94.8058 199.644 95.1439 200.565 94.791 201.333Z" fill="black"/>
<path d="M114.96 193.299C114.785 193.299 114.606 193.269 114.432 193.205C113.636 192.913 113.227 192.031 113.517 191.235L119.34 175.334L103.438 181.155C102.643 181.446 101.759 181.038 101.468 180.241C101.177 179.445 101.586 178.563 102.382 178.271L121.391 171.312C121.957 171.108 122.584 171.246 123.005 171.668C123.428 172.091 123.567 172.72 123.362 173.282L116.402 192.291C116.175 192.913 115.586 193.299 114.96 193.299Z" fill="black"/>
<path d="M149.873 145.866L141.351 164.232C141.105 164.77 140.552 165.123 139.954 165.123C139.355 165.123 138.818 164.77 138.572 164.232L130.832 147.556L133.919 146.911L139.954 159.933L147.079 144.577C147.171 144.377 147.31 144.209 147.463 144.085C147.862 143.717 148.446 143.578 148.968 143.778C149.029 143.794 149.075 143.809 149.122 143.824C149.889 144.177 150.226 145.099 149.873 145.866Z" fill="black"/>
<path d="M199.704 157.2L196.433 164.232C196.187 164.77 195.65 165.123 195.051 165.123C194.452 165.123 193.899 164.77 193.653 164.232L187.372 150.704C188.801 151.779 190.398 152.838 192.21 153.821L195.05 159.933L196.847 156.078C196.909 156.109 196.97 156.124 197.032 156.155C197.939 156.524 198.829 156.877 199.704 157.2Z" fill="black"/>
<path d="M139.959 220.585C139.361 220.585 138.818 220.237 138.566 219.695L130.045 201.332C129.688 200.563 130.022 199.65 130.792 199.293C131.561 198.938 132.476 199.272 132.831 200.04L139.959 215.4L147.085 200.04C147.44 199.271 148.351 198.936 149.124 199.293C149.893 199.65 150.228 200.563 149.871 201.332L141.352 219.695C141.1 220.237 140.557 220.585 139.959 220.585Z" fill="black"/>
<path d="M170.046 193.299C169.87 193.299 169.692 193.269 169.518 193.205C168.721 192.913 168.312 192.031 168.603 191.235L174.426 175.334L158.524 181.155C157.732 181.446 156.846 181.038 156.553 180.241C156.262 179.445 156.672 178.563 157.468 178.271L176.477 171.312C177.041 171.108 177.671 171.246 178.091 171.668C178.514 172.091 178.653 172.72 178.448 173.282L171.488 192.291C171.261 192.913 170.671 193.299 170.046 193.299Z" fill="black"/>
<path d="M204.956 201.333L198.031 216.259C195.65 215.814 193.424 215.277 191.32 214.647C191.305 214.647 185.131 201.333 185.131 201.333C184.778 200.565 185.116 199.644 185.884 199.291C186.652 198.938 187.558 199.275 187.911 200.043L195.051 215.399L202.177 200.043C202.53 199.275 203.436 198.938 204.204 199.291C204.987 199.644 205.309 200.565 204.956 201.333Z" fill="black"/>
<path d="M231.906 177.716L226.578 192.289C226.347 192.919 225.764 193.302 225.134 193.302C224.95 193.302 224.781 193.272 224.596 193.21C223.813 192.919 223.399 192.028 223.69 191.23L229.51 175.336L213.617 181.156C212.818 181.447 211.928 181.033 211.635 180.25C211.344 179.451 211.758 178.561 212.557 178.269L229.617 172.035C230.355 173.861 231.123 175.78 231.906 177.716Z" fill="black"/>
<path d="M13.1882 228.744L11.453 233.474C10.4851 232.107 9.25689 230.249 7.96729 227.976L11.2228 226.779C11.7912 226.579 12.4209 226.717 12.8353 227.132C13.2496 227.561 13.4031 228.191 13.1882 228.744Z" fill="black"/>
<path d="M77.7454 255.51L82.1832 265.092L78.8049 265.107L74.9656 256.799C74.5973 256.032 74.9349 255.11 75.7028 254.757C76.4706 254.404 77.3925 254.742 77.7454 255.51Z" fill="black"/>
<path d="M94.7911 256.8L90.9672 265.031L87.5735 265.062L91.9965 255.51C92.3494 254.742 93.2707 254.404 94.0386 254.757C94.8059 255.11 95.144 256.032 94.7911 256.8Z" fill="black"/>
<path d="M114.96 248.765C114.785 248.765 114.606 248.734 114.432 248.671C113.636 248.379 113.227 247.497 113.517 246.701L119.34 230.799L103.438 236.621C102.643 236.914 101.759 236.504 101.468 235.708C101.177 234.911 101.586 234.029 102.382 233.738L121.391 226.777C121.957 226.573 122.584 226.711 123.005 227.133C123.428 227.556 123.567 228.185 123.362 228.747L116.402 247.756C116.175 248.379 115.586 248.765 114.96 248.765Z" fill="black"/>
<path d="M132.828 255.51L137.127 264.769L133.764 264.8L130.049 256.799C129.696 256.032 130.018 255.11 130.786 254.757C131.554 254.404 132.475 254.742 132.828 255.51Z" fill="black"/>
<path d="M149.873 256.8L146.204 264.723L142.794 264.739L147.078 255.51C147.447 254.742 148.353 254.404 149.121 254.757C149.889 255.11 150.226 256.032 149.873 256.8Z" fill="black"/>
<path d="M170.046 248.765C169.87 248.765 169.692 248.734 169.518 248.671C168.721 248.379 168.312 247.497 168.603 246.701L174.426 230.799L158.524 236.621C157.732 236.914 156.846 236.504 156.553 235.708C156.262 234.911 156.672 234.029 157.468 233.738L176.477 226.777C177.041 226.573 177.671 226.711 178.091 227.133C178.514 227.556 178.653 228.185 178.448 228.747L171.488 247.756C171.261 248.379 170.671 248.765 170.046 248.765Z" fill="black"/>
<path d="M187.911 255.51L192.072 264.463L188.694 264.478L185.132 256.8C184.779 256.032 185.116 255.111 185.884 254.757C186.651 254.404 187.557 254.742 187.911 255.51Z" fill="black"/>
<path d="M203.85 259.18L201.424 264.416L198.045 264.431L202.177 255.509C202.254 255.34 202.361 255.202 202.484 255.08L203.85 259.18Z" fill="black"/>
<path d="M179.266 264.479H82.8776L76.3295 239.284C75.9413 237.79 77.0689 236.332 78.6131 236.332H183.531C185.075 236.332 186.203 237.79 185.815 239.284L179.266 264.479Z" fill="#F78537"/>
<path d="M174.013 236.33H170.942V264.478H174.013V236.33Z" fill="black"/>
<path d="M160.208 236.33H157.136V264.478H160.208V236.33Z" fill="black"/>
<path d="M146.403 236.33H143.332V264.478H146.403V236.33Z" fill="black"/>
<path d="M132.613 236.33H129.542V264.478H132.613V236.33Z" fill="black"/>
<path d="M251.318 275.988H10.8267C7.64839 275.988 5.07202 273.412 5.07202 270.233C5.07202 267.055 7.64839 264.479 10.8267 264.479H251.318C254.496 264.479 257.072 267.055 257.072 270.233C257.072 273.412 254.495 275.988 251.318 275.988Z" fill="#FFA26A"/>
<path d="M266.871 144.275C257.107 144.275 248.698 150.115 244.904 158.476L188.269 198.217C187.82 198.531 187.464 198.926 187.196 199.367C176.923 199.367 127.215 199.367 127.215 199.367C127.215 213.344 138.545 224.674 152.522 224.674H168.155C180.445 224.674 190.68 215.911 192.974 204.293L242.855 169.292C248.015 165.331 253.934 160.811 253.479 158.884C256.464 154.697 261.349 151.953 266.871 151.953C275.942 151.953 283.322 159.332 283.322 168.404C283.322 170.524 285.041 172.243 287.161 172.243C289.282 172.243 291 170.524 291 168.404C291 155.099 280.175 144.275 266.871 144.275Z" fill="#FDE5B4"/>
<path d="M188.481 207.278H131.072C130.224 207.278 129.536 206.591 129.536 205.743C129.536 204.895 130.223 204.207 131.072 204.207H188.481C189.329 204.207 190.017 204.895 190.017 205.743C190.017 206.591 189.329 207.278 188.481 207.278Z" fill="#030402"/>
<path d="M236.441 166.924C236.441 169.972 238.724 172.705 241.769 172.864C245.015 173.034 247.701 170.452 247.701 167.243C247.701 170.352 250.221 172.872 253.33 172.872C256.439 172.872 258.96 170.352 258.96 167.243C258.96 170.352 261.48 172.872 264.589 172.872C267.698 172.872 270.219 170.352 270.219 167.243C270.219 170.735 273.4 173.485 277.022 172.753C279.655 172.221 281.478 169.781 281.478 167.095V147.054C281.478 134.618 271.396 124.537 258.96 124.537C246.524 124.537 236.442 134.618 236.442 147.054V166.924H236.441Z" fill="#FFA26A"/>
<path d="M276.718 171.248C275.458 171.502 274.228 171.208 273.258 170.413C272.301 169.631 271.754 168.475 271.754 167.243V150.598C271.754 149.75 271.068 149.062 270.218 149.062C269.369 149.062 268.683 149.75 268.683 150.598V167.243C268.683 169.5 266.846 171.336 264.589 171.336C262.332 171.336 260.495 169.5 260.495 167.243V150.598C260.495 149.75 259.808 149.062 258.959 149.062C258.111 149.062 257.424 149.75 257.424 150.598V167.243C257.424 169.5 255.587 171.336 253.33 171.336C251.073 171.336 249.237 169.5 249.237 167.243V150.598C249.237 149.75 248.55 149.062 247.701 149.062C246.853 149.062 246.165 149.75 246.165 150.598V167.243C246.165 168.377 245.712 169.431 244.889 170.213C244.065 170.993 242.988 171.384 241.848 171.331C239.714 171.219 237.978 169.243 237.978 166.924V158.34C237.978 157.492 237.291 156.804 236.442 156.804C235.593 156.804 234.906 157.492 234.906 158.34V166.924C234.906 170.916 237.886 174.199 241.687 174.398C243.695 174.506 245.564 173.807 247.003 172.441C247.255 172.202 247.489 171.945 247.702 171.673C249.015 173.338 251.049 174.408 253.329 174.408C255.61 174.408 257.645 173.337 258.959 171.671C260.272 173.337 262.307 174.408 264.588 174.408C266.868 174.408 268.903 173.339 270.215 171.675C270.536 172.081 270.903 172.455 271.313 172.79C272.983 174.157 275.165 174.694 277.326 174.258C278.157 174.091 278.695 173.281 278.527 172.45C278.36 171.619 277.557 171.078 276.718 171.248Z" fill="black"/>
<path d="M159.755 193.492C159.526 193.612 159.287 193.332 159.437 193.122C160.841 191.169 163.389 186.31 157.312 182.759C150.903 179.016 157.362 174.261 159.833 172.704C160.046 172.57 160.29 172.802 160.17 173.023C159.309 174.605 158.149 178.086 162.745 180.49C168.571 183.541 166.383 189.992 159.755 193.492Z" fill="white"/>
<path d="M74.4743 218.164V265.768C69.1919 265.768 63.9403 265.169 58.8723 264.002C40.5677 259.779 25.7642 248.568 17.4258 233.842L57.6588 207.138C58.488 211.883 63.2333 216.152 69.575 217.611C71.1573 217.979 72.8005 218.164 74.4743 218.164Z" fill="#FFA26A"/>
<path d="M104.889 217.847L99.752 216.697L102.341 213.961C106.242 211.031 107.029 205.493 104.099 201.592C101.169 197.692 95.632 196.905 91.7313 199.835L71.334 210.334L63.3691 208.55C61.98 208.239 60.6017 209.113 60.2902 210.503L49.1726 260.156C48.8611 261.545 49.7358 262.924 51.1249 263.234L92.6447 272.531C107.749 275.913 122.727 266.415 126.109 251.311C129.491 236.207 119.993 221.229 104.889 217.847Z" fill="#FECA1F"/>
<path d="M123.891 246.726L125.826 237.881C125.334 236.054 124.659 234.303 123.814 232.629L120.896 246.066L106.737 242.995L109.824 228.836L123.368 231.8C122.677 230.511 121.879 229.282 120.988 228.13L110.47 225.842L111.683 220.314C110.762 219.837 109.809 219.408 108.811 219.023L107.475 225.181L93.3318 222.11L96.4033 207.967L105.341 209.901C105.694 208.934 105.878 207.905 105.878 206.876L97.0637 204.957L98.5227 198.215C97.4934 198.016 96.4186 198.016 95.3745 198.231L94.0536 204.311L86.3143 202.622L82.0147 204.834L93.4091 207.306L90.3224 221.449L76.1793 218.378L78.7744 206.508L75.212 208.335L73.1693 217.717L59.3485 214.707L58.6727 217.702L72.5242 220.727L69.4374 234.87L55.5098 231.83L54.834 234.84L68.7924 237.865L65.7056 252.023L51.67 248.967L51.0095 251.962L65.0605 255.018L62.6956 265.828L65.7056 266.504L68.0552 255.678L82.1982 258.75L79.8333 269.652L82.828 270.328L85.2077 259.41L99.3508 262.481L97.0324 273.154C98.0765 273.215 99.1206 273.231 100.165 273.169L102.361 263.142L116.504 266.213L116.334 267.012C117.793 265.845 119.13 264.524 120.327 263.08L123.229 249.721L126.285 250.381C126.485 249.368 126.623 248.354 126.7 247.34L123.891 246.726ZM92.6714 225.104L106.814 228.191L103.743 242.334L89.6 239.263L92.6714 225.104ZM75.5189 221.373L89.6773 224.46L86.5905 238.603L72.4475 235.531L75.5189 221.373ZM82.8592 255.755L68.7162 252.669L71.7876 238.526L85.946 241.612L82.8592 255.755ZM100.012 259.487L85.8687 256.4L88.9401 242.257L103.083 245.344L100.012 259.487ZM117.149 263.219L103.006 260.132L106.093 245.989L120.236 249.075L117.149 263.219Z" fill="#FDE5B4"/>
<path d="M70.6145 210.173L63.369 208.551C61.98 208.24 60.6017 209.114 60.2908 210.503L49.1731 260.157C48.8622 261.546 49.7364 262.924 51.1254 263.235L58.3709 264.857L70.6145 210.173Z" fill="#F78537"/>
<path d="M96.5448 217.514C96.434 217.514 96.3214 217.503 96.2072 217.478L75.6098 212.866C74.7823 212.681 74.2617 211.859 74.4475 211.032C74.6317 210.205 75.4535 209.691 76.2816 209.868L96.879 214.479C97.7065 214.665 98.2271 215.487 98.0413 216.314C97.8821 217.029 97.2479 217.514 96.5448 217.514Z" fill="#030402"/>
<path d="M129.843 170.459C166.955 170.459 197.039 140.375 197.039 103.263C197.039 66.1522 166.955 36.0675 129.843 36.0675C92.7321 36.0675 62.6475 66.1522 62.6475 103.263C62.6475 140.375 92.7321 170.459 129.843 170.459Z" fill="#FFA26A"/>
<path d="M191.824 47.0544C190.647 47.0544 189.499 47.1681 188.368 47.3318C188.437 46.5912 188.481 45.8438 188.481 45.0851C188.481 31.8571 177.758 21.1338 164.53 21.1338C159.062 21.1338 154.038 22.9867 150.007 26.0706C145.75 19.4265 138.319 15.0115 129.843 15.0115C121.367 15.0115 113.936 19.4265 109.679 26.0706C105.647 22.9867 100.624 21.1338 95.1558 21.1338C81.9278 21.1338 71.2046 31.8571 71.2046 45.0851C71.2046 45.8438 71.2495 46.5912 71.3182 47.3318C70.1866 47.1681 69.0391 47.0544 67.8626 47.0544C54.6346 47.0544 43.9114 57.7777 43.9114 71.0057C43.9114 84.2337 54.6346 94.9569 67.8626 94.9569C81.0906 94.9569 91.8133 84.2337 91.8133 71.0057C91.8133 70.2469 91.7689 69.4995 91.7002 68.7589C92.8318 68.9226 93.9793 69.0363 95.1558 69.0363C103.632 69.0363 111.062 64.6213 115.32 57.9772C119.351 61.0611 124.375 62.9139 129.843 62.9139C135.311 62.9139 140.335 61.0611 144.367 57.9772C148.624 64.6213 156.054 69.0363 164.531 69.0363C165.707 69.0363 166.855 68.9226 167.986 68.7589C167.918 69.4995 167.873 70.2469 167.873 71.0057C167.873 84.2337 178.597 94.9569 191.825 94.9569C205.053 94.9569 215.775 84.2337 215.775 71.0057C215.775 57.7777 205.051 47.0544 191.824 47.0544Z" fill="#F78537"/>
<path d="M214.765 120.922C221.45 114.237 221.45 103.398 214.765 96.7128C208.079 90.0275 197.24 90.0275 190.555 96.7128C183.87 103.398 183.87 114.237 190.555 120.922C197.24 127.608 208.079 127.608 214.765 120.922Z" fill="#FFA26A"/>
<path d="M200.158 118.63C199.856 118.63 199.55 118.541 199.283 118.355C197.119 116.85 195.671 114.592 195.205 111.998C194.74 109.402 195.312 106.782 196.817 104.618C199.926 100.151 206.088 99.0452 210.557 102.154C211.252 102.637 211.425 103.595 210.941 104.291C210.457 104.988 209.499 105.157 208.802 104.674C205.73 102.537 201.479 103.295 199.339 106.372C198.302 107.862 197.907 109.667 198.228 111.455C198.549 113.242 199.546 114.797 201.037 115.835C201.733 116.319 201.906 117.276 201.421 117.972C201.123 118.401 200.644 118.63 200.158 118.63Z" fill="black"/>
<path d="M73.6911 112.699C75.8354 103.491 70.1092 94.2884 60.9015 92.1441C51.6937 89.9998 42.491 95.7259 40.3467 104.934C38.2024 114.141 43.9285 123.344 53.1363 125.488C62.3441 127.633 71.5468 121.907 73.6911 112.699Z" fill="#FFA26A"/>
<path d="M59.5275 118.63C59.0416 118.63 58.5636 118.401 58.2646 117.972C57.7804 117.275 57.9526 116.319 58.6483 115.835C61.7254 113.694 62.4876 109.449 60.346 106.372C58.2072 103.296 53.9588 102.537 50.8834 104.674C50.1849 105.158 49.2294 104.987 48.7452 104.291C48.261 103.595 48.4332 102.637 49.1288 102.154C53.595 99.0458 59.7583 100.151 62.8684 104.618C65.9756 109.085 64.869 115.248 60.4028 118.355C60.1368 118.541 59.8305 118.63 59.5275 118.63Z" fill="black"/>
<path d="M104.824 96.354C105.547 98.6769 101.81 101.904 96.4779 103.563C91.1461 105.222 86.2378 104.683 85.5154 102.361C84.793 100.038 88.5294 96.811 93.8612 95.1519C99.1935 93.4929 104.101 94.0311 104.824 96.354Z" fill="#F78537"/>
<path d="M154.863 96.354C154.14 98.6769 157.877 101.904 163.208 103.563C168.54 105.222 173.448 104.683 174.171 102.361C174.893 100.038 171.157 96.811 165.825 95.1519C160.493 93.4929 155.585 94.0311 154.863 96.354Z" fill="#F78537"/>
<path d="M164.352 131.174C155.31 131.174 147.955 123.818 147.955 114.777C147.955 113.929 148.641 113.241 149.49 113.241C150.339 113.241 151.026 113.929 151.026 114.777C151.026 122.125 157.003 128.103 164.352 128.103C171.7 128.103 177.678 122.125 177.678 114.777C177.678 113.929 178.364 113.241 179.213 113.241C180.062 113.241 180.749 113.929 180.749 114.777C180.749 123.818 173.393 131.174 164.352 131.174Z" fill="black"/>
<path d="M95.3962 131.174C86.3547 131.174 78.999 123.818 78.999 114.777C78.999 113.929 79.6856 113.241 80.5347 113.241C81.3833 113.241 82.0704 113.929 82.0704 114.777C82.0704 122.125 88.0479 128.103 95.3962 128.103C102.743 128.103 108.72 122.125 108.72 114.777C108.72 113.929 109.407 113.241 110.256 113.241C111.105 113.241 111.792 113.929 111.792 114.777C111.792 123.818 104.436 131.174 95.3962 131.174Z" fill="black"/>
<path d="M129.842 131.543C125.843 131.543 122.59 128.857 122.59 125.554C122.59 122.251 125.843 119.565 129.842 119.565C133.842 119.565 137.096 122.251 137.096 125.554C137.096 128.857 133.842 131.543 129.842 131.543ZM129.842 122.636C127.576 122.636 125.661 123.972 125.661 125.555C125.661 127.137 127.576 128.473 129.842 128.473C132.109 128.473 134.025 127.136 134.025 125.555C134.025 123.972 132.11 122.636 129.842 122.636Z" fill="black"/>
<path d="M146.182 146.614C142.246 146.614 139.044 143.411 139.044 139.475C139.044 135.538 142.246 132.336 146.182 132.336C150.119 132.336 153.322 135.538 153.322 139.475C153.322 143.412 150.119 146.614 146.182 146.614ZM146.182 135.408C143.94 135.408 142.115 137.233 142.115 139.475C142.115 141.718 143.94 143.543 146.182 143.543C148.426 143.543 150.251 141.718 150.251 139.475C150.251 137.233 148.426 135.408 146.182 135.408Z" fill="black"/>
</g>
<defs>
<clipPath id="clip0_70_4523">
<rect width="291" height="291" fill="white"/>
</clipPath>
</defs>
</svg>
