<svg width="68" height="86" viewBox="0 0 68 86" fill="none" xmlns="http://www.w3.org/2000/svg">
<path fill-rule="evenodd" clip-rule="evenodd" d="M33.4189 0.000110364C51.8181 -0.0571374 66.6873 14.8658 66.6298 33.3309C66.6121 39.0219 65.1779 44.3855 62.6639 49.0837C62.0799 50.175 61.1251 50.8727 59.912 51.0939C58.6996 51.3147 57.5671 50.9974 56.6492 50.1798L52.5352 46.515C51.4 45.5039 50.9704 44.0248 51.3844 42.5517C52.7678 37.6284 51.1258 31.6661 45.4352 25.955C37.3094 17.8002 24.0071 13.2447 18.6022 18.6688C13.1975 24.0932 17.7365 37.4434 25.8619 45.5984C31.5183 51.2752 37.4218 52.9369 42.3104 51.5935C43.7753 51.1909 45.2385 51.6272 46.2385 52.7647L65.7692 74.9792C71.11 81.0536 60.7103 89.2375 56.1253 82.5677L44.0626 65.0228C40.659 66.2083 37.0085 66.8574 33.2112 66.8692C14.8122 66.9266 -0.0568757 52.0034 0.00015481 33.5386C0.0575992 15.0731 15.0198 0.0573567 33.4189 0.000110364Z" fill="#A7EE6A"/>
</svg>
